<svg width="166" height="177" viewBox="0 0 166 177" fill="none" xmlns="http://www.w3.org/2000/svg">
<path d="M91.6338 25.3636C91.6338 20.7602 87.9005 17 83.2697 17C78.6675 17 74.9073 20.7327 74.9073 25.3636C74.9073 28.984 77.2084 32.0712 80.4359 33.2219V42.7087H86.0491V33.2219C89.3325 32.0993 91.6336 28.9835 91.6336 25.3636H91.6338ZM137.1 49.7526L128.821 41.4457L123.994 46.2725L126.155 48.4332L118.465 56.1226L122.421 60.1091L130.139 52.391L132.301 54.5518L137.1 49.7526Z" fill="#00EFD1"/>
<g filter="url(#filter0_d_2_36)">
<path d="M83.2697 42.0901C83.2697 42.0901 83.2984 42.0901 83.2697 42.0901C112.262 42.0901 135.752 65.5822 135.752 94.5456C135.752 123.509 112.262 147 83.2984 147C54.3346 147 30.8443 123.509 30.8443 94.5456C30.8443 65.5822 54.3063 42.0901 83.2697 42.0901Z" fill="black"/>
</g>
<path d="M111.533 94.5453C111.533 110.139 98.8913 122.779 83.2983 122.779C67.7054 122.779 55.0638 110.139 55.0638 94.5456C55.0638 78.9515 67.7054 66.311 83.2983 66.311C98.8913 66.311 111.533 78.9518 111.533 94.5456V94.5453ZM129.831 97.3519H119.924C118.38 97.3519 117.117 96.089 117.117 94.5453C117.117 93.0017 118.38 91.7388 119.924 91.7388H129.831C131.375 91.7388 132.638 93.0017 132.638 94.5453C132.638 96.089 131.402 97.3519 129.831 97.3519H129.831ZM47.543 97.3519H37.6358C36.0922 97.3519 34.8293 96.089 34.8293 94.5453C34.8293 93.0017 36.0922 91.7388 37.6358 91.7388H47.543C49.0866 91.7388 50.3496 93.0017 50.3496 94.5453C50.3496 96.089 49.0866 97.3519 47.543 97.3519ZM83.2983 61.1472C81.7547 61.1472 80.4918 59.8843 80.4918 58.3407V48.4335C80.4918 46.8899 81.7547 45.6269 83.2983 45.6269C84.842 45.6269 86.1049 46.8899 86.1049 48.4335V58.3407C86.1049 59.8843 84.842 61.1472 83.2983 61.1472ZM83.748 143.436C82.2044 143.436 80.9414 142.173 80.9414 140.629V130.722C80.9414 129.178 82.2044 127.915 83.748 127.915C85.2916 127.915 86.5545 129.178 86.5545 130.722V140.629C86.5545 142.201 85.2916 143.436 83.748 143.436ZM116.331 129.936C115.602 129.936 114.901 129.655 114.339 129.122L107.323 122.106C107.063 121.846 106.856 121.538 106.715 121.198C106.574 120.859 106.502 120.495 106.502 120.127C106.502 119.759 106.574 119.395 106.715 119.056C106.856 118.716 107.063 118.408 107.323 118.148C107.583 117.888 107.891 117.682 108.23 117.541C108.57 117.4 108.934 117.328 109.301 117.328C109.669 117.328 110.033 117.4 110.372 117.541C110.712 117.682 111.02 117.888 111.28 118.148L118.296 125.164C118.556 125.424 118.763 125.732 118.904 126.072C119.045 126.412 119.117 126.776 119.117 127.143C119.117 127.511 119.045 127.875 118.904 128.215C118.763 128.554 118.556 128.863 118.296 129.122C117.763 129.684 117.062 129.936 116.331 129.936ZM58.1515 71.7566C57.4224 71.7566 56.7208 71.476 56.1594 70.9419L49.143 63.9255C48.8827 63.666 48.6762 63.3577 48.5352 63.0182C48.3943 62.6787 48.3218 62.3148 48.3218 61.9473C48.3218 61.5797 48.3943 61.2158 48.5352 60.8763C48.6762 60.5368 48.8827 60.2285 49.143 59.969C49.4025 59.7087 49.7108 59.5022 50.0503 59.3612C50.3897 59.2203 50.7537 59.1478 51.1212 59.1478C51.4888 59.1478 51.8527 59.2203 52.1922 59.3612C52.5317 59.5022 52.84 59.7087 53.0994 59.969L60.1159 66.9855C60.3762 67.2449 60.5827 67.5532 60.7237 67.8927C60.8646 68.2322 60.9371 68.5961 60.9371 68.9637C60.9371 69.3312 60.8646 69.6952 60.7237 70.0346C60.5827 70.3741 60.3762 70.6824 60.1159 70.9419C59.5932 71.4607 58.8877 71.7533 58.1513 71.7566H58.1515ZM109.344 71.7566C108.614 71.7566 107.912 71.476 107.351 70.9419C107.091 70.6823 106.884 70.3739 106.743 70.0345C106.603 69.695 106.53 69.3311 106.53 68.9637C106.53 68.5962 106.603 68.2323 106.743 67.8929C106.884 67.5534 107.091 67.2451 107.351 66.9855L114.367 59.969C114.627 59.7087 114.935 59.502 115.275 59.3611C115.614 59.2201 115.978 59.1475 116.346 59.1475C116.714 59.1475 117.078 59.2201 117.417 59.3611C117.757 59.502 118.065 59.7087 118.325 59.969C118.585 60.2287 118.791 60.537 118.932 60.8765C119.073 61.2159 119.145 61.5798 119.145 61.9473C119.145 62.3147 119.073 62.6786 118.932 63.018C118.791 63.3575 118.585 63.6658 118.325 63.9255L111.308 70.9419C110.786 71.4605 110.08 71.7531 109.344 71.7566V71.7566ZM51.1346 129.936C50.4057 129.936 49.7041 129.655 49.1428 129.122C48.8824 128.863 48.6758 128.554 48.5348 128.215C48.3938 127.875 48.3212 127.511 48.3212 127.143C48.3212 126.776 48.3938 126.412 48.5348 126.072C48.6758 125.732 48.8824 125.424 49.1428 125.164L56.1592 118.148C56.4188 117.888 56.7271 117.682 57.0666 117.541C57.406 117.4 57.7699 117.328 58.1374 117.328C58.5049 117.328 58.8687 117.4 59.2082 117.541C59.5476 117.682 59.856 117.888 60.1156 118.148C60.376 118.408 60.5826 118.716 60.7235 119.056C60.8645 119.395 60.9371 119.759 60.9371 120.127C60.9371 120.495 60.8645 120.859 60.7235 121.198C60.5826 121.538 60.376 121.846 60.1156 122.106L53.0992 129.122C52.5665 129.684 51.8648 129.936 51.1346 129.936Z" fill="#808080"/>
<path fill-rule="evenodd" clip-rule="evenodd" d="M72.9362 77.1596V81.5668L77.4579 81.6103C81.5742 81.6544 83.6632 83.563 84.4124 85.9825H72.9362V90.3897H84.4124C83.6588 92.8048 81.5654 94.7528 77.4579 94.7528H72.9362V99.1954H74.1085L87.6825 112.426L90.7632 109.275L80.1419 98.8952C84.9677 97.9124 88.066 94.3385 88.921 90.3897H94.972V85.9825H88.921C88.5772 84.396 87.8456 82.8975 86.8099 81.5754H94.972V77.1682H72.9362V77.1596Z" fill="#00EFD1"/>
<defs>
<filter id="filter0_d_2_36" x="0.844269" y="12.0901" width="164.908" height="164.91" filterUnits="userSpaceOnUse" color-interpolation-filters="sRGB">
<feFlood flood-opacity="0" result="BackgroundImageFix"/>
<feColorMatrix in="SourceAlpha" type="matrix" values="0 0 0 0 0 0 0 0 0 0 0 0 0 0 0 0 0 0 127 0" result="hardAlpha"/>
<feOffset/>
<feGaussianBlur stdDeviation="15"/>
<feComposite in2="hardAlpha" operator="out"/>
<feColorMatrix type="matrix" values="0 0 0 0 0.576471 0 0 0 0 0.913725 0 0 0 0 0.745098 0 0 0 1 0"/>
<feBlend mode="normal" in2="BackgroundImageFix" result="effect1_dropShadow_2_36"/>
<feBlend mode="normal" in="SourceGraphic" in2="effect1_dropShadow_2_36" result="shape"/>
</filter>
</defs>
</svg>
